<svg width="300" height="300" xmlns="http://www.w3.org/2000/svg">

 <g>
  <title>background</title>
  <rect fill="none" id="canvas_background" height="302" width="302" y="-1" x="-1"/>
 </g>
 <g>
  <title>Layer 1</title>
  <g stroke="null" id="comp_x5F_129-fiverr">
   <g stroke="null" id="svg_1">
    <g stroke="null" id="_x31_13-fiverr_3_">
     <g stroke="null" id="svg_2">
      <g stroke="null" id="svg_3">
       <g stroke="null" id="svg_4">
        <path stroke="#FFFFFF" id="svg_5" fill="none" stroke-width="20" stroke-linecap="round" stroke-linejoin="round" stroke-miterlimit="10" d="m208.98575,205.81243l0,-90.5336l-90.28756,0l0,-5.65812c0,-9.36029 7.59507,-16.97477 16.92729,-16.97477l16.92894,0l0,-33.94995l-16.92894,0c-27.99996,0 -50.78477,22.84755 -50.78477,50.9243l0,5.65812l-18.84072,0l0,33.94995l18.83989,0l0,56.58366l-18.83989,0l0,33.94953l74.30769,0l0,-33.94953l-21.6095,0l0,-56.58324l56.74383,0l0,56.58366l-18.62151,0l0,33.94953l70.17949,0l0,-33.94953l-18.01425,0l0,0z"/>
        <path stroke="#FFFFFF" id="svg_6" fill="none" stroke-width="20" stroke-linecap="round" stroke-linejoin="round" stroke-miterlimit="10" d="m208.98575,75.67077c0,9.37598 -7.58145,16.97477 -16.93059,16.97477c-9.34832,0 -16.9277,-7.59879 -16.9277,-16.97477c0,-9.37639 7.57938,-16.97435 16.9277,-16.97435c9.34915,-0.00041 16.93059,7.59837 16.93059,16.97435l0,0z"/>
       </g>
      </g>
     </g>
    </g>
   </g>
  </g>
  <g id="Layer_1"/>
 </g>
</svg>